# xmcd
# 
# Track frame offsets:
#     150
#     14133
#     27820
#     43282
#     64593
#     75695
#     93036
#     104789
#     119636
#     135781
#     155211
#     171155
#     185260
#     201364
#     217808
#     233441
#     247075
# 
# Disc length: 3421
# 
# Revision: 0
# Processed by: cddbd v1.5.2PL0 Copyright (c) Steve Scherf et al.
# Submitted via: BonkEnc v1.0.8
# 
DISCID=ea0d5b11
DTITLE=Neil Diamond - Best of Neil Diamond
DYEAR=1985
DGENRE=Country
TTITLE0=Thank the lord for the Nightti
TTITLE1=Cracklin' Rosie
TTITLE2=Girl, You'll Be a Woman Soon
TTITLE3=Holly Holy
TTITLE4=Kentucky Woman
TTITLE5=Play Me
TTITLE6=Solitary Man
TTITLE7=Song Sung Blue
TTITLE8=Sweet Caroline
TTITLE9=You Know I'm No Good
TTITLE10=Rehab
TTITLE11=Tears Dry On Their Own
TTITLE12=Will You Still Love Me Tomorro
TTITLE13=Leave Right Now
TTITLE14=Merry Happy
TTITLE15=Pumpkin Soup
TTITLE16=Dickhead
EXTD=
EXTT0=
EXTT1=
EXTT2=
EXTT3=
EXTT4=
EXTT5=
EXTT6=
EXTT7=
EXTT8=
EXTT9=
EXTT10=
EXTT11=
EXTT12=
EXTT13=
EXTT14=
EXTT15=
EXTT16=
PLAYORDER=
